<svg width="36" height="36" viewBox="0 0 36 36" fill="none" xmlns="http://www.w3.org/2000/svg">
<rect x="0.780273" y="0.97998" width="35" height="35" rx="17.5" fill="#E1E3EB"/>
<path d="M18.4555 14.5854C20.1781 14.5854 21.6 16.0073 21.6 17.73C21.6 19.48 20.1781 20.8745 18.4555 20.8745C16.7055 20.8745 15.3109 19.48 15.3109 17.73C15.3109 16.0073 16.7055 14.5854 18.4555 14.5854ZM18.4555 19.7808C19.5766 19.7808 20.4789 18.8784 20.4789 17.73C20.4789 16.6089 19.5766 15.7065 18.4555 15.7065C17.307 15.7065 16.4047 16.6089 16.4047 17.73C16.4047 18.8784 17.3344 19.7808 18.4555 19.7808ZM22.4477 14.4761C22.4477 14.8862 22.1195 15.2144 21.7094 15.2144C21.2992 15.2144 20.9711 14.8862 20.9711 14.4761C20.9711 14.0659 21.2992 13.7378 21.7094 13.7378C22.1195 13.7378 22.4477 14.0659 22.4477 14.4761ZM24.5258 15.2144C24.5805 16.2261 24.5805 19.2612 24.5258 20.2729C24.4711 21.2573 24.2523 22.105 23.5414 22.8433C22.8305 23.5542 21.9555 23.7729 20.9711 23.8276C19.9594 23.8823 16.9242 23.8823 15.9125 23.8276C14.9281 23.7729 14.0805 23.5542 13.3422 22.8433C12.6312 22.105 12.4125 21.2573 12.3578 20.2729C12.3031 19.2612 12.3031 16.2261 12.3578 15.2144C12.4125 14.23 12.6312 13.355 13.3422 12.644C14.0805 11.9331 14.9281 11.7144 15.9125 11.6597C16.9242 11.605 19.9594 11.605 20.9711 11.6597C21.9555 11.7144 22.8305 11.9331 23.5414 12.644C24.2523 13.355 24.4711 14.23 24.5258 15.2144ZM23.2133 21.3394C23.5414 20.5464 23.4594 18.6323 23.4594 17.73C23.4594 16.855 23.5414 14.9409 23.2133 14.1206C22.9945 13.6011 22.5844 13.1636 22.0648 12.9722C21.2445 12.644 19.3305 12.7261 18.4555 12.7261C17.5531 12.7261 15.6391 12.644 14.8461 12.9722C14.2992 13.1909 13.8891 13.6011 13.6703 14.1206C13.3422 14.9409 13.4242 16.855 13.4242 17.73C13.4242 18.6323 13.3422 20.5464 13.6703 21.3394C13.8891 21.8862 14.2992 22.2964 14.8461 22.5151C15.6391 22.8433 17.5531 22.7612 18.4555 22.7612C19.3305 22.7612 21.2445 22.8433 22.0648 22.5151C22.5844 22.2964 23.0219 21.8862 23.2133 21.3394Z" fill="black"/>
</svg>
