<svg width="31" height="30" viewBox="0 0 31 30" fill="none" xmlns="http://www.w3.org/2000/svg">
<rect x="1.08984" y="0.5" width="29" height="29" rx="14.5" fill="#4B3EC4"/>
<rect x="1.08984" y="0.5" width="29" height="29" rx="14.5" stroke="#4B3EC4"/>
<path d="M21.2616 10.6371C22.1049 11.3549 22.5536 12.2701 22.6074 13.3826C22.6612 14.4952 22.3023 15.4373 21.5307 16.2089L16.3358 21.5922C16.1564 21.7716 15.95 21.8613 15.7168 21.8613C15.4835 21.8613 15.2771 21.7716 15.0977 21.5922L9.9028 16.2089C9.13119 15.4373 8.7723 14.4952 8.82614 13.3826C8.87997 12.2701 9.32858 11.3549 10.172 10.6371C10.9077 10.0091 11.7511 9.73993 12.7021 9.82965C13.6711 9.90143 14.4965 10.2872 15.1784 10.9871L15.7168 11.5254L16.2551 10.9871C16.937 10.2872 17.7534 9.90143 18.7045 9.82965C19.6735 9.73993 20.5258 10.0091 21.2616 10.6371Z" fill="white"/>
</svg>
