<svg width="10" height="16" viewBox="0 0 10 16" fill="none" xmlns="http://www.w3.org/2000/svg">
<path d="M8.875 6.84253C9.04427 6.84253 9.1875 6.90763 9.30469 7.03784C9.4349 7.15503 9.5 7.29826 9.5 7.46753V8.09253C9.5 8.2618 9.4349 8.41154 9.30469 8.54175C9.1875 8.65894 9.04427 8.71753 8.875 8.71753H6.0625V11.53C6.0625 11.6993 5.9974 11.8425 5.86719 11.9597C5.75 12.0899 5.60677 12.155 5.4375 12.155H4.8125C4.64323 12.155 4.49349 12.0899 4.36328 11.9597C4.24609 11.8425 4.1875 11.6993 4.1875 11.53V8.71753H1.375C1.20573 8.71753 1.05599 8.65894 0.925781 8.54175C0.808594 8.41154 0.75 8.2618 0.75 8.09253V7.46753C0.75 7.29826 0.808594 7.15503 0.925781 7.03784C1.05599 6.90763 1.20573 6.84253 1.375 6.84253H4.1875V4.03003C4.1875 3.86076 4.24609 3.71753 4.36328 3.60034C4.49349 3.47013 4.64323 3.40503 4.8125 3.40503H5.4375C5.60677 3.40503 5.75 3.47013 5.86719 3.60034C5.9974 3.71753 6.0625 3.86076 6.0625 4.03003V6.84253H8.875Z" fill="black"/>
</svg>
