<svg width="36" height="36" viewBox="0 0 36 36" fill="none" xmlns="http://www.w3.org/2000/svg">
<rect x="0.55957" y="0.97998" width="35" height="35" rx="17.5" fill="#E1E3EB"/>
<path d="M25.019 17.73C25.019 21.4761 21.9839 24.5112 18.2378 24.5112C17.5269 24.5112 16.8433 24.4292 16.2144 24.2104C16.4878 23.7729 16.898 23.0347 17.062 22.4331C17.144 22.1323 17.4722 20.8198 17.4722 20.8198C17.6909 21.2573 18.3472 21.6128 19.0308 21.6128C21.0815 21.6128 22.5581 19.7261 22.5581 17.4019C22.5581 15.1597 20.7261 13.4644 18.3745 13.4644C15.4487 13.4644 13.8901 15.4331 13.8901 17.5659C13.8901 18.5776 14.4097 19.8081 15.2573 20.2183C15.394 20.2729 15.4761 20.2456 15.5034 20.1089C15.5034 20.0269 15.6401 19.562 15.6948 19.3433C15.6948 19.2886 15.6948 19.2065 15.6401 19.1519C15.3667 18.8237 15.148 18.1948 15.148 17.5933C15.148 16.1167 16.269 14.6675 18.2105 14.6675C19.8511 14.6675 21.0269 15.7886 21.0269 17.4292C21.0269 19.2612 20.0972 20.519 18.894 20.519C18.2378 20.519 17.7456 19.9722 17.8823 19.3159C18.0737 18.4956 18.4565 17.6206 18.4565 17.0464C18.4565 16.5269 18.1831 16.0894 17.6089 16.0894C16.9253 16.0894 16.3784 16.8003 16.3784 17.73C16.3784 18.3315 16.5698 18.7417 16.5698 18.7417C16.5698 18.7417 15.9136 21.5854 15.7769 22.105C15.6401 22.7065 15.6948 23.5269 15.7495 24.0464C13.2339 23.062 11.4565 20.6284 11.4565 17.73C11.4565 13.9839 14.4917 10.9487 18.2378 10.9487C21.9839 10.9487 25.019 13.9839 25.019 17.73Z" fill="black"/>
</svg>
