<svg width="35" height="36" viewBox="0 0 35 36" fill="none" xmlns="http://www.w3.org/2000/svg">
<rect y="0.97998" width="35" height="35" rx="17.5" fill="#E1E3EB"/>
<path d="M23.232 14.8862C23.232 15.0229 23.232 15.1323 23.232 15.269C23.232 19.0698 20.3609 23.4175 15.0836 23.4175C13.443 23.4175 11.9391 22.9526 10.6813 22.1323C10.9 22.1597 11.1188 22.187 11.3648 22.187C12.7047 22.187 13.9352 21.7222 14.9195 20.9565C13.6617 20.9292 12.5953 20.1089 12.2398 18.9604C12.4313 18.9878 12.5953 19.0151 12.7867 19.0151C13.0328 19.0151 13.3063 18.9604 13.525 18.9058C12.2125 18.6323 11.2281 17.4839 11.2281 16.0894V16.062C11.6109 16.2808 12.0758 16.3901 12.5406 16.4175C11.7477 15.8979 11.2555 15.0229 11.2555 14.0386C11.2555 13.4917 11.3922 12.9995 11.6383 12.5894C13.0602 14.312 15.193 15.4604 17.5719 15.5972C17.5172 15.3784 17.4898 15.1597 17.4898 14.9409C17.4898 13.355 18.775 12.0698 20.3609 12.0698C21.1813 12.0698 21.9195 12.3979 22.4664 12.9722C23.0953 12.8354 23.7242 12.5894 24.2711 12.2612C24.0523 12.9448 23.6148 13.4917 23.0133 13.8472C23.5875 13.7925 24.1617 13.6284 24.6539 13.4097C24.2711 13.9839 23.7789 14.4761 23.232 14.8862Z" fill="black"/>
</svg>
