<svg width="36" height="36" viewBox="0 0 36 36" fill="none" xmlns="http://www.w3.org/2000/svg">
<rect x="0.669922" y="0.97998" width="35" height="35" rx="17.5" fill="#E1E3EB"/>
<path d="M25.5037 14.1479C25.8318 15.2964 25.8318 17.7573 25.8318 17.7573C25.8318 17.7573 25.8318 20.1909 25.5037 21.3667C25.3396 22.0229 24.8201 22.5151 24.1912 22.6792C23.0154 22.98 18.367 22.98 18.367 22.98C18.367 22.98 13.6912 22.98 12.5154 22.6792C11.8865 22.5151 11.367 22.0229 11.2029 21.3667C10.8748 20.1909 10.8748 17.7573 10.8748 17.7573C10.8748 17.7573 10.8748 15.2964 11.2029 14.1479C11.367 13.4917 11.8865 12.9722 12.5154 12.8081C13.6912 12.48 18.367 12.48 18.367 12.48C18.367 12.48 23.0154 12.48 24.1912 12.8081C24.8201 12.9722 25.3396 13.4917 25.5037 14.1479ZM16.8357 19.9722L20.7186 17.7573L16.8357 15.5425V19.9722Z" fill="black"/>
</svg>
